<svg width="96" height="73" viewBox="0 0 96 73" fill="none" xmlns="../../../www.w3.org/2000/svg.html">
<path d="M81.2676 5.97163C75.1477 3.21171 68.5879 1.17177 61.7281 0.0118003C61.667 7.23254e-05 61.6038 0.00763027 61.5472 0.033429C61.4906 0.0592278 61.4434 0.101991 61.4121 0.155796C60.5722 1.63175 59.6362 3.5557 58.9802 5.07565C51.7048 3.98863 44.3083 3.98863 37.0329 5.07565C36.3022 3.39114 35.4783 1.74865 34.5649 0.155796C34.534 0.101329 34.4871 0.057598 34.4307 0.0304403C34.3742 0.00328256 34.3108 -0.00601109 34.2489 0.00380018C27.3931 1.16377 20.8333 3.20371 14.7095 5.96763C14.6568 5.98973 14.6121 6.02741 14.5815 6.07563C2.13386 24.3751 -1.27804 42.2226 0.397911 59.8461C0.402575 59.8892 0.415973 59.931 0.43729 59.9688C0.458607 60.0066 0.487397 60.0397 0.521907 60.0661C7.78727 65.3556 15.8908 69.3851 24.4932 71.9857C24.5532 72.0042 24.6173 72.0041 24.6773 71.9856C24.7372 71.967 24.7902 71.9308 24.8292 71.8817C26.6803 69.4061 28.3207 66.7796 29.7331 64.0299C29.7527 63.9924 29.764 63.951 29.7662 63.9086C29.7684 63.8663 29.7615 63.824 29.746 63.7845C29.7304 63.7451 29.7066 63.7095 29.6761 63.68C29.6455 63.6506 29.6091 63.6281 29.5691 63.614C26.9852 62.6409 24.4816 61.4667 22.0813 60.1021C22.0382 60.0774 22.0018 60.0425 21.9755 60.0004C21.9492 59.9582 21.9338 59.9102 21.9306 59.8607C21.9274 59.8111 21.9366 59.7616 21.9573 59.7164C21.9781 59.6713 22.0096 59.632 22.0493 59.6021C22.5533 59.2301 23.0573 58.8421 23.5372 58.4541C23.5804 58.4192 23.6325 58.397 23.6876 58.3899C23.7427 58.3829 23.7986 58.3912 23.8492 58.4141C39.5568 65.4699 56.5683 65.4699 72.0918 58.4141C72.1426 58.3899 72.1991 58.3804 72.255 58.3868C72.3109 58.3932 72.3638 58.4151 72.4078 58.4501C72.8878 58.8421 73.3878 59.2301 73.8958 59.6021C73.9358 59.6314 73.9679 59.6701 73.9893 59.7149C74.0107 59.7596 74.0206 59.809 74.0182 59.8585C74.0159 59.9081 74.0012 59.9562 73.9757 59.9987C73.9501 60.0412 73.9144 60.0767 73.8718 60.1021C71.4799 61.478 68.9919 62.642 66.38 63.61C66.3399 63.6245 66.3033 63.6475 66.2728 63.6773C66.2423 63.7071 66.2184 63.7431 66.2029 63.7828C66.1874 63.8226 66.1805 63.8652 66.1828 63.9078C66.1851 63.9504 66.1964 63.9921 66.216 64.0299C67.656 66.7779 69.3039 69.3938 71.1159 71.8777C71.1535 71.9287 71.206 71.9668 71.2662 71.9868C71.3263 72.0069 71.3911 72.0079 71.4519 71.9897C80.069 69.3964 88.1858 65.365 95.4592 60.0661C95.4946 60.0413 95.5244 60.0091 95.5465 59.9719C95.5686 59.9346 95.5824 59.8931 95.5872 59.8501C97.5871 39.4747 92.2353 21.7712 81.3916 6.08362C81.365 6.03264 81.321 5.9929 81.2676 5.97163ZM32.081 49.1144C27.3531 49.1144 23.4532 44.8385 23.4532 39.5947C23.4532 34.3468 27.2771 30.0749 32.081 30.0749C36.9209 30.0749 40.7847 34.3828 40.7087 39.5947C40.7087 44.8425 36.8849 49.1144 32.081 49.1144V49.1144ZM63.9801 49.1144C59.2482 49.1144 55.3523 44.8385 55.3523 39.5947C55.3523 34.3468 59.1722 30.0749 63.9801 30.0749C68.8199 30.0749 72.6838 34.3828 72.6078 39.5947C72.6078 44.8425 68.8239 49.1144 63.9801 49.1144V49.1144Z" fill="#FFF4D7"/>
</svg>
