<?xml version="1.0" encoding="UTF-8"?>
<svg xmlns="http://www.w3.org/2000/svg" xmlns:xlink="http://www.w3.org/1999/xlink" width="32px" height="22px" viewBox="0 0 31 22" version="1.1">
<g id="surface1">
<path style=" stroke:none;fill-rule:nonzero;fill:rgb(66.666667%,74.901961%,94.901961%);fill-opacity:1;" d="M 20.96875 15.929688 L 19.320312 15.929688 C 17.34375 15.90625 15.757812 14.28125 15.78125 12.300781 L 15.78125 10.605469 C 15.769531 9.816406 16.402344 9.167969 17.191406 9.15625 L 24.964844 9.15625 L 24.964844 7.132812 L 11.15625 7.132812 C 9.902344 9.953125 8.621094 12.882812 8.195312 14.039062 C 7.65625 15.40625 6.339844 16.304688 4.871094 16.316406 L 4.871094 17.53125 C 5.972656 18.597656 7.441406 19.199219 8.976562 19.207031 L 21.382812 19.207031 C 23.359375 19.199219 24.957031 17.601562 24.964844 15.625 L 24.964844 15.371094 C 24.40625 15.734375 23.757812 15.933594 23.089844 15.929688 Z M 12.65625 13.167969 C 12.15625 13.167969 11.707031 12.867188 11.519531 12.40625 C 11.335938 11.945312 11.445312 11.414062 11.804688 11.066406 C 12.164062 10.722656 12.695312 10.625 13.152344 10.828125 C 13.605469 11.03125 13.894531 11.488281 13.878906 11.984375 C 13.855469 12.644531 13.316406 13.171875 12.65625 13.167969 Z M 12.65625 13.167969 "/>
<path style=" stroke:none;fill-rule:nonzero;fill:rgb(0%,0%,0%);fill-opacity:1;" d="M 12.65625 10.722656 C 11.980469 10.722656 11.429688 11.269531 11.429688 11.945312 C 11.429688 12.621094 11.980469 13.167969 12.65625 13.167969 C 13.328125 13.167969 13.878906 12.621094 13.878906 11.945312 C 13.878906 11.269531 13.328125 10.722656 12.65625 10.722656 Z M 12.65625 10.722656 "/>
<path style=" stroke:none;fill-rule:nonzero;fill:rgb(79.607843%,85.490196%,96.862745%);fill-opacity:1;" d="M 25.210938 9.15625 L 17.191406 9.15625 C 16.402344 9.167969 15.769531 9.816406 15.78125 10.605469 L 15.78125 12.300781 C 15.757812 14.28125 17.34375 15.90625 19.320312 15.929688 L 23.089844 15.929688 C 23.757812 15.933594 24.40625 15.734375 24.964844 15.371094 C 25 15.351562 25.03125 15.332031 25.0625 15.308594 C 26.035156 14.636719 26.621094 13.535156 26.628906 12.351562 L 26.628906 10.605469 C 26.636719 9.8125 26 9.167969 25.210938 9.15625 Z M 21.699219 14.351562 L 20.109375 14.351562 C 19.878906 14.382812 19.652344 14.277344 19.527344 14.078125 C 19.402344 13.882812 19.402344 13.632812 19.527344 13.433594 C 19.652344 13.238281 19.878906 13.128906 20.109375 13.160156 L 21.699219 13.160156 C 21.929688 13.128906 22.160156 13.238281 22.285156 13.433594 C 22.410156 13.632812 22.410156 13.882812 22.285156 14.078125 C 22.160156 14.277344 21.929688 14.382812 21.699219 14.351562 Z M 24.511719 14.351562 L 23.867188 14.351562 C 23.636719 14.382812 23.410156 14.277344 23.285156 14.078125 C 23.160156 13.882812 23.160156 13.632812 23.285156 13.433594 C 23.410156 13.238281 23.636719 13.128906 23.867188 13.160156 L 24.46875 13.160156 C 24.769531 13.199219 24.996094 13.453125 24.996094 13.757812 C 24.996094 14.058594 24.769531 14.316406 24.46875 14.351562 Z M 24.511719 14.351562 "/>
<path style=" stroke:none;fill-rule:nonzero;fill:rgb(66.666667%,74.901961%,94.901961%);fill-opacity:1;" d="M 21.699219 13.160156 L 20.109375 13.160156 C 19.878906 13.128906 19.652344 13.238281 19.527344 13.433594 C 19.402344 13.632812 19.402344 13.882812 19.527344 14.078125 C 19.652344 14.277344 19.878906 14.382812 20.109375 14.351562 L 21.699219 14.351562 C 21.929688 14.382812 22.160156 14.277344 22.285156 14.078125 C 22.410156 13.882812 22.410156 13.632812 22.285156 13.433594 C 22.160156 13.238281 21.929688 13.128906 21.699219 13.160156 Z M 24.46875 13.160156 L 23.867188 13.160156 C 23.636719 13.128906 23.410156 13.238281 23.285156 13.433594 C 23.160156 13.632812 23.160156 13.882812 23.285156 14.078125 C 23.410156 14.277344 23.636719 14.382812 23.867188 14.351562 L 24.46875 14.351562 C 24.769531 14.316406 24.996094 14.058594 24.996094 13.757812 C 24.996094 13.453125 24.769531 13.199219 24.46875 13.160156 Z M 24.46875 13.160156 "/>
<path style=" stroke:none;fill-rule:nonzero;fill:rgb(93.72549%,53.333333%,26.27451%);fill-opacity:1;" d="M 2.199219 15.308594 C 2.050781 15.242188 1.90625 15.160156 1.765625 15.074219 L 1.765625 20.773438 L 3.292969 21.847656 L 4.824219 20.773438 L 4.824219 16.285156 C 3.855469 16.316406 2.914062 15.964844 2.199219 15.308594 Z M 2.199219 15.308594 "/>
<path style=" stroke:none;fill-rule:nonzero;fill:rgb(81.568627%,85.098039%,91.764706%);fill-opacity:1;" d="M 7.191406 13.378906 C 6.8125 14.316406 6.0625 15.0625 5.117188 15.4375 C 4.175781 15.808594 3.121094 15.777344 2.199219 15.351562 C 2.910156 16.007812 3.851562 16.363281 4.824219 16.335938 C 6.292969 16.324219 7.609375 15.425781 8.148438 14.058594 C 8.589844 12.933594 9.875 10.003906 11.105469 7.152344 L 9.863281 7.152344 C 9.863281 7.152344 8.148438 10.941406 7.191406 13.378906 Z M 7.191406 13.378906 "/>
<path style=" stroke:none;fill-rule:nonzero;fill:rgb(92.156863%,93.72549%,96.862745%);fill-opacity:1;" d="M 14.261719 0.152344 L 15.101562 0.21875 Z M 11.164062 0.257812 C 11.777344 0.1875 12.394531 0.152344 13.007812 0.152344 C 12.394531 0.152344 11.777344 0.1875 11.164062 0.257812 Z M 21.53125 4.390625 C 22.71875 4.417969 23.902344 4.535156 25.070312 4.746094 C 24.292969 3.828125 21.304688 0.800781 15.101562 0.257812 C 19.589844 1.335938 21.246094 3.886719 21.53125 4.390625 Z M 7.191406 13.378906 C 8.148438 10.941406 9.863281 7.132812 9.863281 7.132812 C 9.863281 7.132812 12.902344 4.835938 19.144531 4.441406 C 16.972656 1.480469 13.394531 0.496094 11.175781 0.257812 C 3.5625 1.078125 0 6.859375 0 11.472656 C -0.09375 12.902344 0.578125 14.273438 1.765625 15.074219 C 2.691406 15.660156 3.828125 15.8125 4.871094 15.484375 C 5.917969 15.160156 6.765625 14.386719 7.191406 13.378906 Z M 0.757812 10.574219 C 0.835938 9.046875 2.117188 7.855469 3.648438 7.894531 C 5.148438 8.222656 6.105469 9.695312 5.800781 11.195312 C 5.734375 12.714844 4.476562 13.902344 2.957031 13.878906 C 2.226562 13.734375 1.585938 13.304688 1.171875 12.683594 C 0.761719 12.066406 0.613281 11.304688 0.757812 10.574219 Z M 0.757812 10.574219 "/>
<path style=" stroke:none;fill-rule:nonzero;fill:rgb(98.823529%,58.823529%,29.411765%);fill-opacity:1;" d="M 19.125 4.441406 C 19.578125 4.441406 20.042969 4.441406 20.523438 4.382812 L 21.511719 4.382812 C 21.226562 3.878906 19.539062 1.324219 15.082031 0.25 L 14.261719 0.152344 L 13.007812 0.152344 C 12.394531 0.152344 11.777344 0.1875 11.164062 0.257812 C 13.375 0.523438 16.953125 1.433594 19.125 4.441406 Z M 19.125 4.441406 "/>
<path style=" stroke:none;fill-rule:nonzero;fill:rgb(39.215686%,43.921569%,58.823529%);fill-opacity:1;" d="M 20.523438 4.382812 C 20.042969 4.382812 19.539062 4.382812 19.125 4.441406 C 12.882812 4.835938 9.863281 7.132812 9.863281 7.132812 L 31 7.132812 C 29.25 5.867188 27.21875 5.050781 25.082031 4.746094 C 23.914062 4.535156 22.730469 4.417969 21.542969 4.390625 Z M 2.957031 13.878906 C 4.476562 13.902344 5.734375 12.714844 5.800781 11.195312 C 6.105469 9.695312 5.148438 8.222656 3.648438 7.894531 C 2.117188 7.855469 0.835938 9.046875 0.757812 10.574219 C 0.613281 11.304688 0.761719 12.066406 1.171875 12.683594 C 1.585938 13.304688 2.226562 13.734375 2.957031 13.878906 Z M 1.222656 10.683594 C 1.246094 10.183594 1.46875 9.714844 1.835938 9.382812 C 2.207031 9.046875 2.695312 8.871094 3.195312 8.898438 C 4.171875 9.144531 4.78125 10.113281 4.578125 11.097656 C 4.527344 12.117188 3.671875 12.90625 2.652344 12.875 C 1.660156 12.65625 1.023438 11.683594 1.222656 10.683594 Z M 1.222656 10.683594 "/>
<path style=" stroke:none;fill-rule:nonzero;fill:rgb(98.823529%,58.823529%,29.411765%);fill-opacity:1;" d="M 2.652344 12.875 C 3.671875 12.90625 4.527344 12.117188 4.578125 11.097656 C 4.777344 10.097656 4.140625 9.121094 3.144531 8.898438 C 2.125 8.871094 1.269531 9.664062 1.222656 10.683594 C 1.023438 11.683594 1.660156 12.65625 2.652344 12.875 Z M 2.652344 12.875 "/>
</g>
</svg>
