<?xml version="1.0" standalone="no"?>
<!DOCTYPE svg PUBLIC "-//W3C//DTD SVG 1.0//EN" "http://www.w3.org/TR/2001/REC-SVG-20010904/DTD/svg10.dtd">
<svg xmlns="http://www.w3.org/2000/svg" xmlns:xlink="http://www.w3.org/1999/xlink" id="body_1" width="1024" height="768">

<g transform="matrix(32.580338 0 0 32.580338 -0 25.616295)">
    <path d="M21.26 16L19.59 16C 17.583555 15.972559 15.977761 14.3265085 16 12.32L16 12.32L16 10.6C 15.994658 10.215425 16.142326 9.844483 16.410511 9.568797C 16.678696 9.29311 17.045424 9.135267 17.43 9.13L17.43 9.13L25.310001 9.13L25.310001 7.08L11.310001 7.08C 10.040001 9.94 8.740002 12.91 8.310001 14.08C 7.763217 15.465479 6.429438 16.37973 4.9400015 16.39L4.9400015 16.39L4.9400015 17.619999C 6.0540805 18.704178 7.545468 19.31364 9.100001 19.32L9.100001 19.32L21.68 19.32C 23.682514 19.314507 25.304508 17.692513 25.310001 15.69L25.310001 15.69L25.310001 15.429999C 24.746124 15.801904 24.085478 16.000097 23.410002 15.999999L23.410002 15.999999L21.26 16zM12.83 13.2C 12.3248825 13.199738 11.870409 12.893109 11.681063 12.424824C 11.491715 11.956539 11.605344 11.420204 11.968322 11.068934C 12.331301 10.717665 12.871072 10.621678 13.332899 10.826273C 13.794726 11.030868 14.086293 11.495147 14.07 12C 14.048402 12.669164 13.499511 13.200349 12.83 13.2z" stroke="none" fill="#AABFF2" fill-rule="nonzero" />
    <path d="M12.83 10.72C 12.145166 10.720001 11.59 11.275167 11.59 11.960001C 11.59 12.6448345 12.145166 13.200001 12.83 13.200001C 13.514543 13.199592 14.069258 12.644545 14.069258 11.960001C 14.069258 11.275457 13.514543 10.72041 12.83 10.720001L12.83 10.720001L12.83 10.72z" stroke="none" fill="#000000" fill-rule="nonzero" />
    <path d="M25.56 9.13L17.43 9.13C 17.045424 9.135267 16.678696 9.29311 16.410511 9.568797C 16.142326 9.844483 15.994658 10.215425 16 10.6L16 10.6L16 12.320001C 15.977761 14.326509 17.583555 15.972559 19.59 16L19.59 16L23.41 16C 24.085478 16.0001 24.746124 15.801905 25.31 15.43C 25.34544 15.413739 25.378975 15.393618 25.41 15.37C 26.395916 14.687705 26.988867 13.56893 27 12.37L27 12.37L27 10.6C 27.00557 9.797519 26.362423 9.140973 25.56 9.13zM22 14.4L20.39 14.4C 20.155283 14.430239 19.924257 14.321989 19.797285 14.122276C 19.670315 13.9225645 19.670315 13.667436 19.797285 13.467723C 19.924257 13.268011 20.155283 13.159761 20.39 13.19L20.39 13.19L22 13.19C 22.234716 13.159761 22.465742 13.268011 22.592714 13.467724C 22.719685 13.667436 22.719685 13.9225645 22.592714 14.122277C 22.465742 14.321989 22.234716 14.430239 22 14.4zM24.85 14.4L24.2 14.4C 23.965284 14.430239 23.734259 14.321989 23.607286 14.122276C 23.480316 13.9225645 23.480316 13.667436 23.607286 13.467723C 23.734259 13.268011 23.965284 13.159761 24.2 13.19L24.2 13.19L24.810001 13.19C 25.114248 13.229197 25.34206 13.488238 25.34206 13.795C 25.34206 14.101762 25.114248 14.360804 24.810001 14.4z" stroke="none" fill="#CBDAF7" fill-rule="nonzero" />
    <path d="M22 13.19L20.39 13.19C 20.155283 13.159761 19.924257 13.268011 19.797285 13.467724C 19.670315 13.667436 19.670315 13.9225645 19.797285 14.122277C 19.924257 14.321989 20.155283 14.430239 20.39 14.4L20.39 14.4L22 14.4C 22.234716 14.430239 22.465742 14.321989 22.592714 14.122276C 22.719685 13.9225645 22.719685 13.667436 22.592714 13.467723C 22.465742 13.268011 22.234716 13.159761 22 13.19zM24.81 13.19L24.199999 13.19C 23.965282 13.159761 23.734257 13.268011 23.607285 13.467724C 23.480314 13.667436 23.480314 13.9225645 23.607285 14.122277C 23.734257 14.321989 23.965282 14.430239 24.199999 14.4L24.199999 14.4L24.81 14.4C 25.114246 14.360804 25.342058 14.101762 25.342058 13.795C 25.342058 13.488238 25.114246 13.229197 24.81 13.19z" stroke="none" fill="#AABFF2" fill-rule="nonzero" />
    <path d="M2.23 15.37C 2.0781465 15.299902 1.9311496 15.219723 1.79 15.13L1.79 15.13L1.79 20.91L3.34 22L4.89 20.91L4.89 16.36C 3.9080472 16.390177 2.9532847 16.034832 2.2299998 15.370001L2.2299998 15.370001L2.23 15.37z" stroke="none" fill="#EF8843" fill-rule="nonzero" />
    <path d="M7.29 13.41C 6.9058366 14.364363 6.14646 15.118986 5.189704 15.49715C 4.2329483 15.875315 3.162847 15.843805 2.23 15.41C 2.9517126 16.078466 3.9066584 16.437468 4.8900003 16.41C 6.379437 16.39973 7.713216 15.485479 8.26 14.1C 8.71 12.96 10.01 9.99 11.26 7.1000004L11.26 7.1000004L10 7.1000004C 10 7.1000004 8.26 10.940001 7.29 13.41z" stroke="none" fill="#D0D9EA" fill-rule="nonzero" />
    <path d="M14.46 0L15.31 0.07L14.46 0zM11.32 0.11C 11.9406595 0.03700447 12.565061 0.0002746582 13.19 0C 12.565061 0.0002746582 11.9406595 0.03700447 11.32 0.11zM21.83 4.3C 23.034239 4.3258095 24.234613 4.4461803 25.42 4.6600003C 24.63 3.7300003 21.6 0.6600003 15.31 0.11000013C 19.86 1.2000002 21.54 3.7900002 21.83 4.3zM7.29 13.41C 8.26 10.94 10 7.08 10 7.08C 10 7.08 13.08 4.75 19.41 4.35C 17.21 1.3499999 13.58 0.3499999 11.33 0.11000013C 3.61 0.94 0 6.8 0 11.48C -0.09511471 12.928461 0.5865185 14.318383 1.79 15.129999C 2.7270546 15.726442 3.8794494 15.879296 4.9395914 15.54776C 5.999733 15.216226 6.859717 14.434046 7.29 13.409999zM0.77 10.57C 0.84555507 9.017909 2.146583 7.810129 3.7 7.85C 5.2191186 8.184624 6.189319 9.675528 5.88 11.2C 5.8151684 12.737061 4.5382547 13.943035 3 13.92C 2.2592998 13.7728615 1.6077002 13.336779 1.1892388 12.708149C 0.7707772 12.079518 0.61991477 11.310108 0.77 10.57z" stroke="none" fill="#EBEFF7" fill-rule="nonzero" />
    <path d="M19.39 4.35C 19.849998 4.35 20.32 4.35 20.81 4.29L20.81 4.29L21.81 4.29C 21.519999 3.78 19.81 1.19 15.289999 0.099999905L15.289999 0.099999905L14.459999 -9.685755E-08L13.189999 -9.685755E-08C 12.565061 0.0002746582 11.9406595 0.03700447 11.319999 0.1099999C 13.5599985 0.3799999 17.189999 1.3 19.39 4.35z" stroke="none" fill="#FC964B" fill-rule="nonzero" />
    <path d="M20.81 4.29C 20.32 4.29 19.81 4.29 19.39 4.35C 13.059999 4.75 9.999999 7.08 9.999999 7.08L9.999999 7.08L31.43 7.08C 29.656492 5.7975245 27.597006 4.9668646 25.43 4.66C 24.244614 4.4461803 23.044239 4.3258095 21.84 4.2999997L21.84 4.2999997L20.81 4.29zM3 13.92C 4.5382547 13.943035 5.8151684 12.737061 5.88 11.2C 6.189319 9.675528 5.2191186 8.184624 3.7 7.85C 2.146583 7.810129 0.84555507 9.017909 0.77 10.57C 0.61991477 11.310108 0.7707772 12.079518 1.1892388 12.708149C 1.6077002 13.336779 2.2592998 13.7728615 3 13.92zM1.24 10.68C 1.2632605 10.174065 1.4875548 9.698356 1.8630756 9.358509C 2.2385964 9.018663 2.734261 8.84281 3.24 8.870001C 4.2295704 9.117073 4.847526 10.101388 4.64 11.1C 4.591352 12.132181 3.7227685 12.93395 2.6899998 12.900001C 1.6815743 12.680061 1.0360804 11.691788 1.2399998 10.68z" stroke="none" fill="#647096" fill-rule="nonzero" />
    <path d="M2.69 12.9C 3.7227685 12.93395 4.5913525 12.13218 4.6400003 11.099999C 4.8443613 10.085874 4.199829 9.094628 3.1900003 8.869999C 2.155552 8.841623 1.2886299 9.646303 1.2400002 10.679998C 1.0360808 11.691786 1.6815748 12.680059 2.6900003 12.899999L2.6900003 12.899999L2.69 12.9z" stroke="none" fill="#FC964B" fill-rule="nonzero" />
</g>
</svg>