<?xml version="1.0" encoding="UTF-8"?>
<svg xmlns="http://www.w3.org/2000/svg" xmlns:xlink="http://www.w3.org/1999/xlink" width="1024px" height="768px" viewBox="0 0 256 192" version="1.1">
<g id="surface1">
<path style=" stroke:none;fill-rule:nonzero;fill:rgb(66.666667%,74.901961%,94.901961%);fill-opacity:1;" d="M 173.164062 136.726562 L 159.5625 136.726562 C 143.21875 136.5 130.140625 123.09375 130.320312 106.75 L 130.320312 92.742188 C 130.277344 89.609375 131.480469 86.589844 133.664062 84.34375 C 135.847656 82.097656 138.835938 80.8125 141.96875 80.769531 L 206.152344 80.769531 L 206.152344 64.070312 L 92.121094 64.070312 C 81.777344 87.367188 71.1875 111.558594 67.6875 121.085938 C 63.230469 132.371094 52.367188 139.816406 40.238281 139.902344 L 40.238281 149.921875 C 49.3125 158.75 61.457031 163.714844 74.121094 163.765625 L 176.585938 163.765625 C 192.894531 163.722656 206.105469 150.511719 206.152344 134.199219 L 206.152344 132.082031 C 201.558594 135.113281 196.179688 136.726562 190.675781 136.726562 Z M 104.5 113.917969 C 100.386719 113.917969 96.683594 111.417969 95.144531 107.605469 C 93.601562 103.792969 94.527344 99.421875 97.484375 96.5625 C 100.441406 93.699219 104.835938 92.917969 108.597656 94.585938 C 112.359375 96.25 114.734375 100.03125 114.601562 104.144531 C 114.425781 109.59375 109.953125 113.921875 104.5 113.917969 Z M 104.5 113.917969 "/>
<path style=" stroke:none;fill-rule:nonzero;fill:rgb(0%,0%,0%);fill-opacity:1;" d="M 104.5 93.71875 C 98.921875 93.71875 94.402344 98.242188 94.402344 103.820312 C 94.402344 109.398438 98.921875 113.917969 104.5 113.917969 C 110.078125 113.914062 114.59375 109.394531 114.59375 103.820312 C 114.59375 98.242188 110.078125 93.722656 104.5 93.71875 Z M 104.5 93.71875 "/>
<path style=" stroke:none;fill-rule:nonzero;fill:rgb(79.607843%,85.490196%,96.862745%);fill-opacity:1;" d="M 208.1875 80.769531 L 141.96875 80.769531 C 138.835938 80.8125 135.847656 82.097656 133.664062 84.34375 C 131.480469 86.589844 130.277344 89.609375 130.320312 92.742188 L 130.320312 106.75 C 130.140625 123.09375 143.21875 136.5 159.5625 136.726562 L 190.675781 136.726562 C 196.179688 136.726562 201.558594 135.113281 206.152344 132.082031 C 206.441406 131.949219 206.714844 131.785156 206.964844 131.59375 C 214.996094 126.035156 219.828125 116.925781 219.917969 107.160156 L 219.917969 92.742188 C 219.960938 86.207031 214.722656 80.859375 208.1875 80.769531 Z M 179.191406 123.691406 L 166.078125 123.691406 C 164.167969 123.941406 162.285156 123.058594 161.25 121.429688 C 160.214844 119.804688 160.214844 117.726562 161.25 116.101562 C 162.285156 114.472656 164.167969 113.589844 166.078125 113.835938 L 179.191406 113.835938 C 181.105469 113.589844 182.984375 114.472656 184.019531 116.101562 C 185.054688 117.726562 185.054688 119.804688 184.019531 121.429688 C 182.984375 123.058594 181.105469 123.941406 179.191406 123.691406 Z M 202.40625 123.691406 L 197.109375 123.691406 C 195.199219 123.941406 193.316406 123.058594 192.285156 121.429688 C 191.25 119.804688 191.25 117.726562 192.285156 116.101562 C 193.316406 114.472656 195.199219 113.589844 197.109375 113.835938 L 202.078125 113.835938 C 204.558594 114.15625 206.414062 116.265625 206.414062 118.765625 C 206.414062 121.265625 204.558594 123.375 202.078125 123.691406 Z M 202.40625 123.691406 "/>
<path style=" stroke:none;fill-rule:nonzero;fill:rgb(66.666667%,74.901961%,94.901961%);fill-opacity:1;" d="M 179.191406 113.835938 L 166.078125 113.835938 C 164.167969 113.589844 162.285156 114.472656 161.25 116.101562 C 160.214844 117.726562 160.214844 119.804688 161.25 121.429688 C 162.285156 123.058594 164.167969 123.941406 166.078125 123.691406 L 179.191406 123.691406 C 181.105469 123.941406 182.984375 123.058594 184.019531 121.429688 C 185.054688 119.804688 185.054688 117.726562 184.019531 116.101562 C 182.984375 114.472656 181.105469 113.589844 179.191406 113.835938 Z M 202.078125 113.835938 L 197.109375 113.835938 C 195.199219 113.589844 193.316406 114.472656 192.285156 116.101562 C 191.25 117.726562 191.25 119.804688 192.285156 121.429688 C 193.316406 123.058594 195.199219 123.941406 197.109375 123.691406 L 202.078125 123.691406 C 204.558594 123.375 206.414062 121.265625 206.414062 118.765625 C 206.414062 116.265625 204.558594 114.15625 202.078125 113.835938 Z M 202.078125 113.835938 "/>
<path style=" stroke:none;fill-rule:nonzero;fill:rgb(93.72549%,53.333333%,26.27451%);fill-opacity:1;" d="M 18.164062 131.59375 C 16.925781 131.023438 15.730469 130.371094 14.578125 129.640625 L 14.578125 176.71875 L 27.203125 185.597656 L 39.828125 176.71875 L 39.828125 139.65625 C 31.832031 139.902344 24.054688 137.007812 18.164062 131.59375 Z M 18.164062 131.59375 "/>
<path style=" stroke:none;fill-rule:nonzero;fill:rgb(81.568627%,85.098039%,91.764706%);fill-opacity:1;" d="M 59.378906 115.628906 C 56.25 123.402344 50.0625 129.550781 42.269531 132.628906 C 34.476562 135.710938 25.761719 135.453125 18.164062 131.917969 C 24.042969 137.363281 31.820312 140.289062 39.828125 140.066406 C 51.960938 139.980469 62.824219 132.535156 67.277344 121.25 C 70.945312 111.964844 81.53125 87.773438 91.714844 64.234375 L 81.449219 64.234375 C 81.449219 64.234375 67.277344 95.511719 59.378906 115.628906 Z M 59.378906 115.628906 "/>
<path style=" stroke:none;fill-rule:nonzero;fill:rgb(92.156863%,93.72549%,96.862745%);fill-opacity:1;" d="M 117.777344 6.402344 L 124.703125 6.972656 Z M 92.203125 7.300781 C 97.257812 6.707031 102.34375 6.40625 107.433594 6.402344 C 102.34375 6.40625 97.257812 6.707031 92.203125 7.300781 Z M 177.808594 41.429688 C 187.617188 41.636719 197.394531 42.617188 207.046875 44.359375 C 200.613281 36.785156 175.933594 11.78125 124.703125 7.300781 C 161.761719 16.179688 175.445312 37.273438 177.808594 41.429688 Z M 59.378906 115.628906 C 67.277344 95.511719 81.449219 64.070312 81.449219 64.070312 C 81.449219 64.070312 106.539062 45.09375 158.097656 41.835938 C 140.175781 17.398438 110.609375 9.253906 92.285156 7.300781 C 29.402344 14.058594 0 61.789062 0 99.910156 C -0.773438 111.707031 4.777344 123.027344 14.578125 129.640625 C 22.210938 134.496094 31.597656 135.742188 40.234375 133.042969 C 48.867188 130.339844 55.871094 123.96875 59.378906 115.628906 Z M 6.273438 92.496094 C 6.886719 79.855469 17.484375 70.019531 30.136719 70.34375 C 42.511719 73.070312 50.414062 85.210938 47.894531 97.628906 C 47.363281 110.148438 36.964844 119.972656 24.433594 119.785156 C 18.402344 118.585938 13.09375 115.035156 9.6875 109.914062 C 6.277344 104.792969 5.050781 98.527344 6.273438 92.496094 Z M 6.273438 92.496094 "/>
<path style=" stroke:none;fill-rule:nonzero;fill:rgb(98.823529%,58.823529%,29.411765%);fill-opacity:1;" d="M 157.933594 41.835938 C 161.679688 41.835938 165.507812 41.835938 169.5 41.347656 L 177.644531 41.347656 C 175.28125 37.191406 161.355469 16.097656 124.539062 7.21875 L 117.777344 6.402344 L 107.433594 6.402344 C 102.34375 6.40625 97.257812 6.707031 92.203125 7.300781 C 110.449219 9.5 140.015625 16.992188 157.933594 41.835938 Z M 157.933594 41.835938 "/>
<path style=" stroke:none;fill-rule:nonzero;fill:rgb(39.215686%,43.921569%,58.823529%);fill-opacity:1;" d="M 169.5 41.347656 C 165.507812 41.347656 161.355469 41.347656 157.933594 41.835938 C 106.375 45.09375 81.449219 64.070312 81.449219 64.070312 L 256 64.070312 C 241.554688 53.625 224.78125 46.859375 207.128906 44.359375 C 197.472656 42.617188 187.699219 41.636719 177.886719 41.429688 Z M 24.433594 119.785156 C 36.964844 119.972656 47.363281 110.148438 47.894531 97.628906 C 50.414062 85.210938 42.511719 73.070312 30.136719 70.34375 C 17.484375 70.019531 6.886719 79.855469 6.273438 92.496094 C 5.050781 98.527344 6.277344 104.792969 9.6875 109.914062 C 13.09375 115.035156 18.402344 118.585938 24.433594 119.785156 Z M 10.101562 93.394531 C 10.289062 89.273438 12.117188 85.398438 15.175781 82.628906 C 18.234375 79.863281 22.269531 78.429688 26.390625 78.652344 C 34.449219 80.664062 39.484375 88.679688 37.792969 96.816406 C 37.398438 105.222656 30.320312 111.753906 21.910156 111.476562 C 13.695312 109.683594 8.4375 101.632812 10.101562 93.394531 Z M 10.101562 93.394531 "/>
<path style=" stroke:none;fill-rule:nonzero;fill:rgb(98.823529%,58.823529%,29.411765%);fill-opacity:1;" d="M 21.910156 111.476562 C 30.320312 111.753906 37.398438 105.222656 37.792969 96.816406 C 39.457031 88.554688 34.207031 80.480469 25.984375 78.652344 C 17.558594 78.417969 10.496094 84.972656 10.101562 93.394531 C 8.4375 101.632812 13.695312 109.683594 21.910156 111.476562 Z M 21.910156 111.476562 "/>
</g>
</svg>
