<?xml version="1.0" encoding="UTF-8"?>
<svg xmlns="http://www.w3.org/2000/svg" xmlns:xlink="http://www.w3.org/1999/xlink" width="46px" height="32px" viewBox="0 0 45 32" version="1.1">
<g id="surface1">
<path style=" stroke:none;fill-rule:nonzero;fill:rgb(66.666667%,74.901961%,94.901961%);fill-opacity:1;" d="M 30.4375 23.171875 L 28.046875 23.171875 C 25.175781 23.132812 22.875 20.773438 22.90625 17.894531 L 22.90625 15.425781 C 22.890625 14.277344 23.808594 13.332031 24.957031 13.316406 L 36.238281 13.316406 L 36.238281 10.375 L 16.191406 10.375 C 14.375 14.480469 12.511719 18.738281 11.898438 20.417969 C 11.113281 22.40625 9.207031 23.71875 7.074219 23.734375 L 7.074219 25.496094 C 8.667969 27.054688 10.804688 27.925781 13.027344 27.9375 L 31.039062 27.9375 C 33.90625 27.929688 36.230469 25.601562 36.238281 22.726562 L 36.238281 22.355469 C 35.429688 22.890625 34.484375 23.171875 33.515625 23.171875 Z M 18.371094 19.15625 C 17.644531 19.15625 16.996094 18.714844 16.722656 18.042969 C 16.453125 17.371094 16.617188 16.601562 17.136719 16.097656 C 17.65625 15.59375 18.429688 15.457031 19.089844 15.75 C 19.75 16.042969 20.167969 16.710938 20.144531 17.433594 C 20.113281 18.394531 19.328125 19.15625 18.371094 19.15625 Z M 18.371094 19.15625 "/>
<path style=" stroke:none;fill-rule:nonzero;fill:rgb(0%,0%,0%);fill-opacity:1;" d="M 18.371094 15.597656 C 17.390625 15.597656 16.59375 16.394531 16.59375 17.378906 C 16.59375 18.359375 17.390625 19.15625 18.371094 19.15625 C 19.351562 19.15625 20.144531 18.359375 20.144531 17.378906 C 20.144531 16.394531 19.351562 15.597656 18.371094 15.597656 Z M 18.371094 15.597656 "/>
<path style=" stroke:none;fill-rule:nonzero;fill:rgb(79.607843%,85.490196%,96.862745%);fill-opacity:1;" d="M 36.59375 13.316406 L 24.957031 13.316406 C 23.808594 13.332031 22.890625 14.277344 22.90625 15.425781 L 22.90625 17.894531 C 22.875 20.773438 25.175781 23.132812 28.046875 23.171875 L 33.515625 23.171875 C 34.484375 23.171875 35.429688 22.890625 36.238281 22.355469 C 36.289062 22.332031 36.335938 22.304688 36.378906 22.269531 C 37.792969 21.289062 38.640625 19.683594 38.65625 17.964844 L 38.65625 15.425781 C 38.664062 14.273438 37.746094 13.332031 36.59375 13.316406 Z M 31.5 20.878906 L 29.195312 20.878906 C 28.855469 20.921875 28.527344 20.765625 28.34375 20.480469 C 28.164062 20.191406 28.164062 19.828125 28.34375 19.539062 C 28.527344 19.253906 28.855469 19.097656 29.195312 19.140625 L 31.5 19.140625 C 31.835938 19.097656 32.164062 19.253906 32.347656 19.539062 C 32.527344 19.828125 32.527344 20.191406 32.347656 20.480469 C 32.164062 20.765625 31.835938 20.921875 31.5 20.878906 Z M 35.578125 20.878906 L 34.648438 20.878906 C 34.3125 20.921875 33.980469 20.765625 33.800781 20.480469 C 33.617188 20.191406 33.617188 19.828125 33.800781 19.539062 C 33.980469 19.253906 34.3125 19.097656 34.648438 19.140625 L 35.523438 19.140625 C 35.957031 19.199219 36.285156 19.570312 36.285156 20.011719 C 36.285156 20.449219 35.957031 20.820312 35.523438 20.878906 Z M 35.578125 20.878906 "/>
<path style=" stroke:none;fill-rule:nonzero;fill:rgb(66.666667%,74.901961%,94.901961%);fill-opacity:1;" d="M 31.5 19.140625 L 29.195312 19.140625 C 28.855469 19.097656 28.527344 19.253906 28.34375 19.539062 C 28.164062 19.828125 28.164062 20.191406 28.34375 20.480469 C 28.527344 20.765625 28.855469 20.921875 29.195312 20.878906 L 31.5 20.878906 C 31.835938 20.921875 32.164062 20.765625 32.347656 20.480469 C 32.527344 20.191406 32.527344 19.828125 32.347656 19.539062 C 32.164062 19.253906 31.835938 19.097656 31.5 19.140625 Z M 35.523438 19.140625 L 34.648438 19.140625 C 34.3125 19.097656 33.980469 19.253906 33.800781 19.539062 C 33.617188 19.828125 33.617188 20.191406 33.800781 20.480469 C 33.980469 20.765625 34.3125 20.921875 34.648438 20.878906 L 35.523438 20.878906 C 35.957031 20.820312 36.285156 20.449219 36.285156 20.011719 C 36.285156 19.570312 35.957031 19.199219 35.523438 19.140625 Z M 35.523438 19.140625 "/>
<path style=" stroke:none;fill-rule:nonzero;fill:rgb(93.72549%,53.333333%,26.27451%);fill-opacity:1;" d="M 3.191406 22.269531 C 2.976562 22.167969 2.765625 22.054688 2.5625 21.925781 L 2.5625 30.21875 L 4.78125 31.78125 L 7 30.21875 L 7 23.691406 C 5.59375 23.734375 4.226562 23.222656 3.191406 22.269531 Z M 3.191406 22.269531 "/>
<path style=" stroke:none;fill-rule:nonzero;fill:rgb(81.568627%,85.098039%,91.764706%);fill-opacity:1;" d="M 10.4375 19.457031 C 9.886719 20.828125 8.800781 21.910156 7.429688 22.453125 C 6.058594 22.996094 4.527344 22.949219 3.191406 22.328125 C 4.226562 23.285156 5.59375 23.800781 7 23.761719 C 9.132812 23.746094 11.042969 22.433594 11.828125 20.449219 C 12.46875 18.8125 14.332031 14.550781 16.121094 10.40625 L 14.316406 10.40625 C 14.316406 10.40625 11.828125 15.914062 10.4375 19.457031 Z M 10.4375 19.457031 "/>
<path style=" stroke:none;fill-rule:nonzero;fill:rgb(92.156863%,93.72549%,96.862745%);fill-opacity:1;" d="M 20.703125 0.21875 L 21.921875 0.320312 Z M 16.207031 0.375 C 17.097656 0.273438 17.988281 0.21875 18.886719 0.21875 C 17.988281 0.21875 17.097656 0.273438 16.207031 0.375 Z M 31.253906 6.386719 C 32.980469 6.425781 34.699219 6.597656 36.394531 6.90625 C 35.265625 5.570312 30.925781 1.164062 21.921875 0.375 C 28.433594 1.941406 30.839844 5.65625 31.253906 6.386719 Z M 10.4375 19.457031 C 11.828125 15.914062 14.316406 10.375 14.316406 10.375 C 14.316406 10.375 18.726562 7.035156 27.789062 6.460938 C 24.640625 2.15625 19.441406 0.722656 16.222656 0.375 C 5.167969 1.566406 0 9.972656 0 16.6875 C -0.136719 18.765625 0.839844 20.761719 2.5625 21.925781 C 3.90625 22.78125 5.554688 23 7.074219 22.523438 C 8.589844 22.046875 9.820312 20.925781 10.4375 19.457031 Z M 1.101562 15.382812 C 1.210938 13.15625 3.074219 11.421875 5.296875 11.480469 C 7.472656 11.960938 8.863281 14.101562 8.417969 16.285156 C 8.324219 18.492188 6.496094 20.222656 4.296875 20.1875 C 3.234375 19.976562 2.300781 19.351562 1.703125 18.449219 C 1.105469 17.546875 0.886719 16.445312 1.101562 15.382812 Z M 1.101562 15.382812 "/>
<path style=" stroke:none;fill-rule:nonzero;fill:rgb(98.823529%,58.823529%,29.411765%);fill-opacity:1;" d="M 27.761719 6.460938 C 28.421875 6.460938 29.09375 6.460938 29.792969 6.375 L 31.226562 6.375 C 30.8125 5.640625 28.363281 1.925781 21.890625 0.363281 L 20.703125 0.21875 L 18.886719 0.21875 C 17.988281 0.21875 17.097656 0.273438 16.207031 0.375 C 19.414062 0.765625 24.613281 2.082031 27.761719 6.460938 Z M 27.761719 6.460938 "/>
<path style=" stroke:none;fill-rule:nonzero;fill:rgb(39.215686%,43.921569%,58.823529%);fill-opacity:1;" d="M 29.792969 6.375 C 29.09375 6.375 28.363281 6.375 27.761719 6.460938 C 18.699219 7.035156 14.316406 10.375 14.316406 10.375 L 45 10.375 C 42.460938 8.535156 39.511719 7.34375 36.410156 6.90625 C 34.710938 6.597656 32.992188 6.425781 31.269531 6.386719 Z M 4.296875 20.1875 C 6.496094 20.222656 8.324219 18.492188 8.417969 16.285156 C 8.863281 14.101562 7.472656 11.960938 5.296875 11.480469 C 3.074219 11.421875 1.210938 13.15625 1.101562 15.382812 C 0.886719 16.445312 1.105469 17.546875 1.703125 18.449219 C 2.300781 19.351562 3.234375 19.976562 4.296875 20.1875 Z M 1.773438 15.539062 C 1.808594 14.816406 2.128906 14.132812 2.667969 13.644531 C 3.207031 13.15625 3.914062 12.90625 4.640625 12.945312 C 6.054688 13.296875 6.941406 14.710938 6.644531 16.144531 C 6.574219 17.625 5.332031 18.773438 3.851562 18.726562 C 2.40625 18.410156 1.484375 16.992188 1.773438 15.539062 Z M 1.773438 15.539062 "/>
<path style=" stroke:none;fill-rule:nonzero;fill:rgb(98.823529%,58.823529%,29.411765%);fill-opacity:1;" d="M 3.851562 18.726562 C 5.332031 18.773438 6.574219 17.625 6.644531 16.144531 C 6.9375 14.6875 6.011719 13.265625 4.566406 12.945312 C 3.085938 12.902344 1.84375 14.058594 1.773438 15.539062 C 1.484375 16.992188 2.40625 18.410156 3.851562 18.726562 Z M 3.851562 18.726562 "/>
</g>
</svg>
