<?xml version="1.0" encoding="UTF-8"?>
<svg xmlns="http://www.w3.org/2000/svg" xmlns:xlink="http://www.w3.org/1999/xlink" width="32px" height="32px" viewBox="0 0 32 22" version="1.1">
<g id="surface1">
<path style=" stroke:none;fill-rule:nonzero;fill:rgb(66.666667%,74.901961%,94.901961%);fill-opacity:1;" d="M 21.644531 15.929688 L 19.945312 15.929688 C 17.902344 15.90625 16.265625 14.28125 16.289062 12.300781 L 16.289062 10.605469 C 16.277344 9.816406 16.929688 9.167969 17.746094 9.15625 L 25.769531 9.15625 L 25.769531 7.132812 L 11.515625 7.132812 C 10.222656 9.953125 8.898438 12.882812 8.460938 14.039062 C 7.902344 15.40625 6.546875 16.304688 5.03125 16.316406 L 5.03125 17.53125 C 6.164062 18.597656 7.683594 19.199219 9.265625 19.207031 L 22.074219 19.207031 C 24.113281 19.199219 25.761719 17.601562 25.769531 15.625 L 25.769531 15.371094 C 25.195312 15.734375 24.523438 15.933594 23.835938 15.929688 Z M 13.0625 13.167969 C 12.546875 13.167969 12.085938 12.867188 11.894531 12.40625 C 11.699219 11.945312 11.816406 11.414062 12.183594 11.066406 C 12.554688 10.722656 13.105469 10.625 13.574219 10.828125 C 14.042969 11.03125 14.339844 11.488281 14.324219 11.984375 C 14.304688 12.644531 13.746094 13.171875 13.0625 13.167969 Z M 13.0625 13.167969 "/>
<path style=" stroke:none;fill-rule:nonzero;fill:rgb(0%,0%,0%);fill-opacity:1;" d="M 13.0625 10.722656 C 12.367188 10.722656 11.800781 11.269531 11.800781 11.945312 C 11.800781 12.621094 12.367188 13.167969 13.0625 13.167969 C 13.761719 13.167969 14.324219 12.621094 14.324219 11.945312 C 14.324219 11.269531 13.761719 10.722656 13.0625 10.722656 Z M 13.0625 10.722656 "/>
<path style=" stroke:none;fill-rule:nonzero;fill:rgb(79.607843%,85.490196%,96.862745%);fill-opacity:1;" d="M 26.023438 9.15625 L 17.746094 9.15625 C 16.929688 9.167969 16.277344 9.816406 16.289062 10.605469 L 16.289062 12.300781 C 16.265625 14.28125 17.902344 15.90625 19.945312 15.929688 L 23.835938 15.929688 C 24.523438 15.933594 25.195312 15.734375 25.769531 15.371094 C 25.804688 15.351562 25.839844 15.332031 25.871094 15.308594 C 26.875 14.636719 27.476562 13.535156 27.488281 12.351562 L 27.488281 10.605469 C 27.496094 9.8125 26.839844 9.167969 26.023438 9.15625 Z M 22.398438 14.351562 L 20.761719 14.351562 C 20.519531 14.382812 20.285156 14.277344 20.15625 14.078125 C 20.027344 13.882812 20.027344 13.632812 20.15625 13.433594 C 20.285156 13.238281 20.519531 13.128906 20.761719 13.160156 L 22.398438 13.160156 C 22.636719 13.128906 22.875 13.238281 23.003906 13.433594 C 23.132812 13.632812 23.132812 13.882812 23.003906 14.078125 C 22.875 14.277344 22.636719 14.382812 22.398438 14.351562 Z M 25.300781 14.351562 L 24.640625 14.351562 C 24.398438 14.382812 24.164062 14.277344 24.035156 14.078125 C 23.90625 13.882812 23.90625 13.632812 24.035156 13.433594 C 24.164062 13.238281 24.398438 13.128906 24.640625 13.160156 L 25.261719 13.160156 C 25.570312 13.199219 25.800781 13.453125 25.800781 13.757812 C 25.800781 14.058594 25.570312 14.316406 25.261719 14.351562 Z M 25.300781 14.351562 "/>
<path style=" stroke:none;fill-rule:nonzero;fill:rgb(66.666667%,74.901961%,94.901961%);fill-opacity:1;" d="M 22.398438 13.160156 L 20.761719 13.160156 C 20.519531 13.128906 20.285156 13.238281 20.15625 13.433594 C 20.027344 13.632812 20.027344 13.882812 20.15625 14.078125 C 20.285156 14.277344 20.519531 14.382812 20.761719 14.351562 L 22.398438 14.351562 C 22.636719 14.382812 22.875 14.277344 23.003906 14.078125 C 23.132812 13.882812 23.132812 13.632812 23.003906 13.433594 C 22.875 13.238281 22.636719 13.128906 22.398438 13.160156 Z M 25.261719 13.160156 L 24.640625 13.160156 C 24.398438 13.128906 24.164062 13.238281 24.035156 13.433594 C 23.90625 13.632812 23.90625 13.882812 24.035156 14.078125 C 24.164062 14.277344 24.398438 14.382812 24.640625 14.351562 L 25.261719 14.351562 C 25.570312 14.316406 25.800781 14.058594 25.800781 13.757812 C 25.800781 13.453125 25.570312 13.199219 25.261719 13.160156 Z M 25.261719 13.160156 "/>
<path style=" stroke:none;fill-rule:nonzero;fill:rgb(93.72549%,53.333333%,26.27451%);fill-opacity:1;" d="M 2.269531 15.308594 C 2.117188 15.242188 1.964844 15.160156 1.824219 15.074219 L 1.824219 20.773438 L 3.402344 21.847656 L 4.980469 20.773438 L 4.980469 16.285156 C 3.980469 16.316406 3.007812 15.964844 2.269531 15.308594 Z M 2.269531 15.308594 "/>
<path style=" stroke:none;fill-rule:nonzero;fill:rgb(81.568627%,85.098039%,91.764706%);fill-opacity:1;" d="M 7.421875 13.378906 C 7.03125 14.316406 6.257812 15.0625 5.285156 15.4375 C 4.308594 15.808594 3.21875 15.777344 2.269531 15.351562 C 3.003906 16.007812 3.976562 16.363281 4.980469 16.335938 C 6.496094 16.324219 7.851562 15.425781 8.410156 14.058594 C 8.867188 12.933594 10.191406 10.003906 11.464844 7.152344 L 10.179688 7.152344 C 10.179688 7.152344 8.410156 10.941406 7.421875 13.378906 Z M 7.421875 13.378906 "/>
<path style=" stroke:none;fill-rule:nonzero;fill:rgb(92.156863%,93.72549%,96.862745%);fill-opacity:1;" d="M 14.722656 0.152344 L 15.585938 0.21875 Z M 11.523438 0.257812 C 12.15625 0.1875 12.792969 0.152344 13.429688 0.152344 C 12.792969 0.152344 12.15625 0.1875 11.523438 0.257812 Z M 22.226562 4.390625 C 23.453125 4.417969 24.675781 4.535156 25.882812 4.746094 C 25.078125 3.828125 21.992188 0.800781 15.585938 0.257812 C 20.21875 1.335938 21.929688 3.886719 22.226562 4.390625 Z M 7.421875 13.378906 C 8.410156 10.941406 10.179688 7.132812 10.179688 7.132812 C 10.179688 7.132812 13.316406 4.835938 19.761719 4.441406 C 17.523438 1.480469 13.828125 0.496094 11.535156 0.257812 C 3.675781 1.078125 0 6.859375 0 11.472656 C -0.0976562 12.902344 0.597656 14.273438 1.824219 15.074219 C 2.777344 15.660156 3.949219 15.8125 5.027344 15.484375 C 6.109375 15.160156 6.984375 14.386719 7.421875 13.378906 Z M 0.785156 10.574219 C 0.859375 9.046875 2.183594 7.855469 3.765625 7.894531 C 5.3125 8.222656 6.300781 9.695312 5.988281 11.195312 C 5.921875 12.714844 4.621094 13.902344 3.054688 13.878906 C 2.300781 13.734375 1.636719 13.304688 1.210938 12.683594 C 0.785156 12.066406 0.632812 11.304688 0.785156 10.574219 Z M 0.785156 10.574219 "/>
<path style=" stroke:none;fill-rule:nonzero;fill:rgb(98.823529%,58.823529%,29.411765%);fill-opacity:1;" d="M 19.742188 4.441406 C 20.210938 4.441406 20.6875 4.441406 21.1875 4.382812 L 22.207031 4.382812 C 21.910156 3.878906 20.167969 1.324219 15.566406 0.25 L 14.722656 0.152344 L 13.429688 0.152344 C 12.792969 0.152344 12.15625 0.1875 11.523438 0.257812 C 13.804688 0.523438 17.5 1.433594 19.742188 4.441406 Z M 19.742188 4.441406 "/>
<path style=" stroke:none;fill-rule:nonzero;fill:rgb(39.215686%,43.921569%,58.823529%);fill-opacity:1;" d="M 21.1875 4.382812 C 20.6875 4.382812 20.167969 4.382812 19.742188 4.441406 C 13.296875 4.835938 10.179688 7.132812 10.179688 7.132812 L 32 7.132812 C 30.195312 5.867188 28.097656 5.050781 25.890625 4.746094 C 24.683594 4.535156 23.460938 4.417969 22.234375 4.390625 Z M 3.054688 13.878906 C 4.621094 13.902344 5.921875 12.714844 5.988281 11.195312 C 6.300781 9.695312 5.3125 8.222656 3.765625 7.894531 C 2.183594 7.855469 0.859375 9.046875 0.785156 10.574219 C 0.632812 11.304688 0.785156 12.066406 1.210938 12.683594 C 1.636719 13.304688 2.300781 13.734375 3.054688 13.878906 Z M 1.261719 10.683594 C 1.285156 10.183594 1.515625 9.714844 1.898438 9.382812 C 2.277344 9.046875 2.785156 8.871094 3.296875 8.898438 C 4.304688 9.144531 4.933594 10.113281 4.722656 11.097656 C 4.675781 12.117188 3.789062 12.90625 2.738281 12.875 C 1.710938 12.65625 1.054688 11.683594 1.261719 10.683594 Z M 1.261719 10.683594 "/>
<path style=" stroke:none;fill-rule:nonzero;fill:rgb(98.823529%,58.823529%,29.411765%);fill-opacity:1;" d="M 2.738281 12.875 C 3.789062 12.90625 4.675781 12.117188 4.722656 11.097656 C 4.933594 10.097656 4.277344 9.121094 3.246094 8.898438 C 2.195312 8.871094 1.3125 9.664062 1.261719 10.683594 C 1.054688 11.683594 1.710938 12.65625 2.738281 12.875 Z M 2.738281 12.875 "/>
</g>
</svg>
